<?xml version="1.0" encoding="UTF-8"?>
<!DOCTYPE svg PUBLIC "-//W3C//DTD SVG 1.1//EN" "http://www.w3.org/Graphics/SVG/1.1/DTD/svg11.dtd">
<svg xmlns="http://www.w3.org/2000/svg" version="1.1" width="300px" height="300px" style="shape-rendering:geometricPrecision; text-rendering:geometricPrecision; image-rendering:optimizeQuality; fill-rule:evenodd; clip-rule:evenodd" xmlns:xlink="http://www.w3.org/1999/xlink">
<g><path style="opacity:0.999" fill="#1793d1" d="M 148.5,-0.5 C 149.167,-0.5 149.833,-0.5 150.5,-0.5C 165.065,35.6838 180.899,71.3505 198,106.5C 219.402,148.974 241.569,190.974 264.5,232.5C 264.167,232.833 263.833,233.167 263.5,233.5C 253.458,227.436 242.792,223.27 231.5,221C 247.119,229.952 261.619,240.452 275,252.5C 282.687,267.882 290.853,282.882 299.5,297.5C 299.5,298.167 299.5,298.833 299.5,299.5C 298.833,299.5 298.167,299.5 297.5,299.5C 267.038,280.606 234.705,265.439 200.5,254C 194.189,252.339 187.856,250.839 181.5,249.5C 186.751,225.379 182.251,203.379 168,183.5C 154.052,172.023 141.052,173.023 129,186.5C 117.424,206.089 113.924,227.089 118.5,249.5C 101.993,252.613 85.9929,257.446 70.5,264C 46.5616,274.301 23.5616,286.134 1.5,299.5C 0.833333,299.5 0.166667,299.5 -0.5,299.5C -0.5,298.833 -0.5,298.167 -0.5,297.5C 37.5368,231.436 73.5368,164.103 107.5,95.5C 108.365,94.4173 109.365,94.2506 110.5,95C 120.54,103.181 131.54,109.514 143.5,114C 132.091,105.761 121.757,96.2608 112.5,85.5C 125.482,57.2155 137.482,28.5488 148.5,-0.5 Z"/></g>
</svg>
